PathFileType	4	(X/Y/Z)	Patient4_TMGait_0pt2_01_left_15.trc.trc
DataRate	CameraRate	NumFrames	NumMarkers	Units	OrigDataRate	OrigDataStartFrame	OrigNumFrames
41.297935103245	41.297935103245	4	33	mm	41.297935103245	18	       141
Frame#	Time	Sacral			L.Shoulder			Chest			R.Shoulder			Neck			R.ASIS			L.ASIS			R.Thigh.Superior			R.Thigh.Lateral			R.Thigh.Inferior			R.Patella			L.Thigh.Superior			L.Thigh.Lateral			L.Thigh.Inferior			L.Patella			L.Shank.Superior			L.Shank.Lateral			L.Shank.Inferior			R.Shank.Superior			R.Shank.Lateral			R.Shank.Inferior			R.Heel			R.Midfoot.Superior			R.Midfoot.Lateral			R.Toe			L.Heel			L.Midfoot.Lateral			L.Midfoot.Superior			L.Toe			L.Elbow			L.Wrist			R.Elbow			R.Wrist			
		X1	Y1	Z1	X2	Y2	Z2	X3	Y3	Z3	X4	Y4	Z4	X5	Y5	Z5	X6	Y6	Z6	X7	Y7	Z7	X8	Y8	Z8	X9	Y9	Z9	X10	Y10	Z10	X11	Y11	Z11	X12	Y12	Z12	X13	Y13	Z13	X14	Y14	Z14	X15	Y15	Z15	X16	Y16	Z16	X17	Y17	Z17	X18	Y18	Z18	X19	Y19	Z19	X20	Y20	Z20	X21	Y21	Z21	X22	Y22	Z22	X23	Y23	Z23	X24	Y24	Z24	X25	Y25	Z25	X26	Y26	Z26	X27	Y27	Z27	X28	Y28	Z28	X29	Y29	Z29	X30	Y30	Z30	X31	Y31	Z31	X32	Y32	Z32	X33	Y33	Z33	

18	34.591642857143	669.894931241424	998.885267773312	594.836298710472	799.033952469765	1421.079417625953	372.136911313820	935.115847733116	1359.334174211932	509.275582059115	889.588883543299	1434.907645769928	695.618812904745	809.520418006357	1486.230184869580	526.612335791438	916.335180064215	928.968154763335	662.053918007992	851.302239573121	960.136508317727	396.862181474994	940.691981517321	724.222495159363	610.874004834392	868.763996390036	610.253271483205	675.614531472626	925.260010172593	563.187429175859	578.026670836365	921.900996747107	469.322921473215	579.438279993827	937.964609938058	773.820175940643	423.296953218100	885.858714729152	648.602103870417	342.647492307317	984.246706513323	586.278566351040	404.566857923316	1007.590899745969	515.301974699833	395.808310317915	979.430797527399	441.595817583908	377.743817471231	893.910087925840	331.281888959349	311.070081393033	957.703155229376	212.750657010070	359.718591621392	875.312212424156	383.790587282889	587.835906792515	795.050693987857	290.753168554176	656.154915805448	806.088970331456	195.170982126442	585.015804351494	641.635096032506	45.046911134835	567.231311518211	816.369725867072	95.827075876571	592.222928932562	728.947148454200	37.476573214970	636.547724930729	936.397682666590	40.062875769082	614.259812395741	841.511882586855	43.178819989822	375.861587845876	920.388864876568	48.485984950537	300.278227325945	998.307099506702	115.650356197676	332.107643020955	1129.812228082185	75.058586573836	308.163344661422	672.607382091092	1086.427356503826	302.885754641594	615.326701763419	835.339327758170	337.903477151038	1075.632904191641	1153.259041548876	816.326595704357	1325.574791339220	1166.281592468463	752.353371111636	
19	34.615857142857	669.900738622862	1000.769886552839	593.719624463522	798.199783035992	1423.344994795358	371.715126213033	935.314811912842	1360.646694739795	507.500337362843	891.424631673024	1435.948969713736	694.247416438085	809.845401044591	1487.809149728448	526.269334865255	916.206535689171	929.681750637626	659.612553767140	850.220522709459	961.969210728482	394.741842538534	937.329447261821	724.005404672756	609.208995839353	864.069966101676	611.287805739631	675.072692820617	919.509403427720	563.049364013624	577.668660881072	914.902622031104	469.850168972482	579.555126292547	934.874455242174	773.587746948365	419.393779228529	879.665707037381	648.802996940953	339.711480290468	978.100891603509	585.939079973194	400.435623312174	1000.969453655228	516.875650841851	393.111886848359	976.608705727597	443.312370210414	375.410738447550	897.371795973151	328.214328243681	307.703110675223	966.287020555302	212.903183163906	357.984500852243	868.920499026971	384.439899220038	588.030011824382	788.912276483872	291.152095375690	656.261536050927	800.525444765876	195.512090832832	585.138101792466	636.670446372461	44.945999582375	567.222909573491	811.413990026519	95.832871529561	592.255675146884	723.984893479447	37.418367701147	636.544051727379	931.439653787847	40.119379251348	614.256178082599	857.352966783857	38.713407550168	372.603967119569	937.904604347827	45.763818339725	298.739650627763	1012.578004261760	116.460493572757	331.750455189819	1146.512045768684	80.459592252088	311.457831478496	668.585275017284	1090.340049058756	303.244221529129	607.973410637681	840.230819276550	338.573581574675	1085.691056115844	1160.516854548023	810.852532941248	1332.813182459315	1190.657659352656	742.919861228516	
20	34.640071428571	670.024049670295	1002.096436670594	592.122244395655	797.769218927695	1424.988043274432	370.736521107349	935.625841927568	1361.509873181966	505.522361346310	892.903605935932	1436.562814677945	692.521105353042	810.187113665451	1488.906712505821	525.396209533797	916.174813526993	930.101212974230	657.146703617029	849.548639256114	963.146714705434	392.513612066968	934.381536451874	723.617238884275	607.530909830242	859.827063238135	612.066822829766	674.383725343716	914.355490500168	562.720940884143	577.232737649279	908.524595923695	470.099349543194	579.556160842482	932.186793616494	772.711711402670	415.204450942703	873.782230614430	648.322422848294	336.787567726723	972.522786573122	585.028266066932	396.183346370485	994.535215686060	517.524943447727	390.251597602100	973.381246472694	444.278278332999	372.934288167959	899.210455477187	325.543638953442	304.970164839414	972.303215979400	213.171990832487	356.501865308963	863.018504183552	384.838466718061	588.101662902320	783.084284698189	291.433686566170	656.244256372374	795.140979779384	195.706603824242	585.196369394815	631.710243442780	44.819446452791	567.190970042944	806.450352866906	95.825861024888	592.267074536562	719.019762030907	37.351949123295	636.527062555922	926.482208793180	40.172403148194	614.257261719685	869.422043185156	36.014814386910	370.498014585550	951.011367624371	44.161231187328	297.826775283682	1023.135650777597	117.341974484978	331.471624645334	1158.563374250379	84.704720961610	313.866296978510	665.925517634355	1093.198678043249	302.880568849195	602.716263192723	843.761590999269	338.255118784079	1094.471917439675	1166.999380995095	805.167602568967	1337.904269714603	1212.497086911937	733.770190893706	
21	34.664285714286	670.304473460756	1002.863981541367	590.082090023240	797.714748642782	1425.993825519022	369.175425106067	936.053712944094	1361.921367808019	503.301415130597	894.061710535722	1436.764810388717	690.413308409737	810.554474133791	1489.515633690665	523.962870322861	916.291289251793	930.228230837054	654.641102732967	849.289288854309	963.674388955949	390.161985469804	931.934048280627	723.046933230398	605.830420520784	856.110397464651	612.568103455318	673.508401161445	909.885258495226	562.191227493042	576.677233363014	902.863270503490	470.043406464188	579.392511185555	929.967790901510	771.268257841745	410.917292389615	868.438872182938	647.237232085913	333.975489718742	967.650023137607	583.624775945975	392.021067512685	988.499969810317	517.303371622181	387.355810878779	969.937636075261	444.477326809963	370.400287553736	899.535368466138	323.132491071175	302.852341328255	975.903739406915	213.284134607863	355.247429416146	857.671359082730	384.969407762399	588.016403120505	777.626610986073	291.601640594281	656.094042435967	789.966273730861	195.753913629656	585.184060641243	626.759238841276	44.681125043739	567.140914793037	801.488187713512	95.807721824311	592.261529039111	714.058657542118	37.281942959755	636.501326379695	921.530154123460	40.216645108638	614.264888880500	877.705099252161	34.633901713300	369.424722174603	959.783027394162	43.219018704926	297.424837664201	1030.158811705893	117.903339574098	331.216016963977	1166.309122536646	87.351553978439	315.334554196386	664.552027026854	1094.996403441675	301.727312679343	599.445045582305	845.952699013446	336.926638403897	1102.003776625232	1172.655378136993	799.414968964233	1341.219964376908	1231.699965646780	725.005053821823	
